<svg width="43" height="31" viewBox="0 0 43 31" fill="none" xmlns="http://www.w3.org/2000/svg">
<path d="M0.0078125 11.9041C0.0078125 5.59579 5.11728 0.486328 11.4256 0.486328H12.1868C13.8709 0.486328 15.2315 1.84695 15.2315 3.53108C15.2315 5.2152 13.8709 6.57582 12.1868 6.57582H11.4256C8.48553 6.57582 6.09731 8.96405 6.09731 11.9041V12.6653H12.1868C15.5455 12.6653 18.2763 15.3961 18.2763 18.7548V24.8443C18.2763 28.203 15.5455 30.9338 12.1868 30.9338H6.09731C2.73857 30.9338 0.0078125 28.203 0.0078125 24.8443V21.7996V18.7548V11.9041ZM24.3658 11.9041C24.3658 5.59579 29.4753 0.486328 35.7836 0.486328H36.5448C38.2289 0.486328 39.5895 1.84695 39.5895 3.53108C39.5895 5.2152 38.2289 6.57582 36.5448 6.57582H35.7836C32.8435 6.57582 30.4553 8.96405 30.4553 11.9041V12.6653H36.5448C39.9035 12.6653 42.6343 15.3961 42.6343 18.7548V24.8443C42.6343 28.203 39.9035 30.9338 36.5448 30.9338H30.4553C27.0965 30.9338 24.3658 28.203 24.3658 24.8443V21.7996V18.7548V11.9041Z" fill="#EA7185"/>
</svg>
